PathFileType	4	(X/Y/Z)	/Users/itak/Documents/Research/Walk-IL/dataset/trc/00190_00008.trc
DataRate	CameraRate	NumFrames	NumMarkers	Units	OrigDataRate	OrigDataStartFrame	OrigNumFrames
100.000000	100.000000	4	53	mm	100.000000	0	769
Frame#	Time	RPSI			LPSI			L3			STRN			T10			C7			CLAV			RBAK			LBAK			LSHO			LUPA			LAEL			LAOL			LWTS			LWPS			LFRA			LIFD			LHPS			LHTS			RSHO			RUPA			RAEL			RAOL			RWTS			RWPS			RFRA			RIFD			RHTS			RHPS			RBHD			LFHD			RFHD			LBHD			LHIP			RHIP			RASI			LASI			LKNE			LTHI			LANK			LTIP			LTOE			LMT1			LMT5			LHEE			RKNE			RTHI			RANK			RTIP			RTOE			RMT1			RMT5			RHEE			
		X1	Y1	Z1	X2	Y2	Z2	X3	Y3	Z3	X4	Y4	Z4	X5	Y5	Z5	X6	Y6	Z6	X7	Y7	Z7	X8	Y8	Z8	X9	Y9	Z9	X10	Y10	Z10	X11	Y11	Z11	X12	Y12	Z12	X13	Y13	Z13	X14	Y14	Z14	X15	Y15	Z15	X16	Y16	Z16	X17	Y17	Z17	X18	Y18	Z18	X19	Y19	Z19	X20	Y20	Z20	X21	Y21	Z21	X22	Y22	Z22	X23	Y23	Z23	X24	Y24	Z24	X25	Y25	Z25	X26	Y26	Z26	X27	Y27	Z27	X28	Y28	Z28	X29	Y29	Z29	X30	Y30	Z30	X31	Y31	Z31	X32	Y32	Z32	X33	Y33	Z33	X34	Y34	Z34	X35	Y35	Z35	X36	Y36	Z36	X37	Y37	Z37	X38	Y38	Z38	X39	Y39	Z39	X40	Y40	Z40	X41	Y41	Z41	X42	Y42	Z42	X43	Y43	Z43	X44	Y44	Z44	X45	Y45	Z45	X46	Y46	Z46	X47	Y47	Z47	X48	Y48	Z48	X49	Y49	Z49	X50	Y50	Z50	X51	Y51	Z51	X52	Y52	Z52	X53	Y53	Z53	

1	0	360.4684143066406	1056.630615234375	936.09912109375	349.787841796875	1056.16259765625	1059.951049804688	353.6489562988281	1093.253662109375	995.91162109375	99.07869720458984	1300.52783203125	981.740966796875	389.9072875976562	1251.750610351562	1007.943969726562	322.7498779296875	1520.604125976562	1015.228149414062	123.4347381591797	1416.110717773438	993.6307983398438	400.3964233398438	1345.504028320312	912.3988037109375	321.6600036621094	1496.747192382812	1115.545776367188	238.5425415039062	1484.538818359375	1186.418334960938	261.5288696289062	1351.83447265625	1262.569946289062	231.9980010986328	1135.261840820312	1282.862060546875	290.8558044433594	1116.651611328125	1220.194458007812	116.5052261352539	910.5908813476562	1236.985961914062	188.9705352783203	884.679931640625	1290.666625976562	210.4333343505859	1026.113647460938	1295.907836914062	108.0846252441406	732.287841796875	1206.077514648438	167.0171508789062	816.1900634765625	1284.630615234375	100.7345504760742	830.43994140625	1256.490478515625	276.8397827148438	1498.136962890625	829.2865600585938	302.3626708984375	1431.614013671875	761.6167602539062	311.3279724121094	1142.196044921875	705.6820068359375	311.0965270996094	1134.053833007812	803.5044555664062	157.9908752441406	923.5281982421875	716.0230712890625	234.2928619384766	901.7603149414062	674.0692138671875	283.6342468261719	1070.851440429688	685.8551635742188	130.7350769042969	736.1019287109375	738.8722534179688	126.7850112915039	831.1188354492188	706.1900634765625	201.0730133056641	820.1168212890625	675.6830444335938	248.4314727783203	1683.961669921875	929.3555297851562	63.85987854003906	1709.9970703125	1040.810424804688	75.38230895996094	1700.708984375	912.0610961914062	240.3870086669922	1701.945190429688	1064.79150390625	237.2705535888672	995.3983764648438	1167.862670898438	215.8125305175781	1016.36669921875	797.7103271484375	129.0095977783203	1043.531127929688	846.7032470703125	115.7006072998047	1029.6767578125	1105.1943359375	249.53515625	500.8629455566406	1133.961669921875	235.7289886474609	643.6946411132812	1160.250366210938	349.7688598632812	46.08443069458008	1143.185424804688	297.1620788574219	281.6526489257812	1151.831420898438	127.3002548217773	43.56601715087891	1140.090209960938	173.6133422851562	44.51202011108398	1087.065673828125	246.6209411621094	38.35790634155273	1193.94482421875	393.5853271484375	43.62179946899414	1069.042114257812	240.0500946044922	518.165283203125	810.2708129882812	177.0819244384766	785.1072387695312	781.4778442382812	347.5508117675781	41.65094757080078	808.6365966796875	237.6277008056641	400.5748596191406	825.0164184570312	122.8685455322266	42.9827995300293	826.0248413085938	175.2850952148438	41.16405868530273	875.5234985351562	237.7205505371094	40.46170043945312	765.4093627929688	395.1150512695312	37.7049560546875	878.1626586914062	
2	0.01	360.4227294921875	1056.654052734375	936.2169799804688	349.7116394042969	1056.198120117188	1060.08056640625	353.5793762207031	1093.281372070312	996.0420532226562	98.96976470947266	1300.508544921875	981.861572265625	389.8183898925781	1251.753784179688	1008.014892578125	322.6942749023438	1520.606201171875	1015.285278320312	123.5237503051758	1415.857299804688	993.6272583007812	400.3066711425781	1345.508544921875	912.4629516601562	321.6016235351562	1496.734741210938	1115.598022460938	238.5151977539062	1484.524169921875	1186.51123046875	261.5573425292969	1351.767578125	1262.611083984375	232.1838836669922	1135.126708984375	1282.652709960938	291.0145568847656	1116.625732421875	1219.9228515625	116.6515884399414	910.4632568359375	1236.507202148438	189.1820220947266	884.5072021484375	1290.156494140625	210.6023864746094	1025.975463867188	1295.586303710938	108.5312805175781	732.1609497070312	1205.66162109375	167.2404632568359	816.0374755859375	1284.048706054688	100.8968124389648	829.9384765625	1255.831665039062	276.7041320800781	1498.126342773438	829.3619995117188	302.2257080078125	1431.619262695312	761.68798828125	311.2336120605469	1142.182861328125	705.7714233398438	311.0052490234375	1134.051391601562	803.6054077148438	157.843017578125	923.4865112304688	716.2548217773438	234.125244140625	901.7279052734375	674.2384643554688	283.478515625	1070.840698242188	685.98095703125	130.6331329345703	736.1124877929688	739.1380004882812	126.6068801879883	831.1083984375	706.4152221679688	200.8822937011719	820.0833740234375	675.8980102539062	248.5429534912109	1683.943481445312	929.5033569335938	63.95001602172852	1710.131591796875	1040.970947265625	75.51787567138672	1700.8857421875	912.2100219726562	240.4676666259766	1701.8779296875	1064.947265625	237.2375793457031	995.4126586914062	1168.003784179688	215.4237976074219	1016.606811523438	797.5897827148438	128.9977416992188	1043.494750976562	846.8550415039062	115.7076797485352	1029.664672851562	1105.315551757812	249.5269012451172	500.8457946777344	1134.05322265625	235.6725616455078	643.6773681640625	1160.3828125	349.7644348144531	46.08530044555664	1143.189575195312	297.1658630371094	281.6537780761719	1151.859375	127.2979125976562	43.56708908081055	1140.088989257812	173.6187133789062	44.51003646850586	1087.06494140625	246.6227569580078	38.36574935913086	1193.950439453125	393.5884094238281	43.61447143554688	1069.044799804688	240.284423828125	518.1784057617188	810.3240356445312	177.1499633789062	785.06884765625	781.6024780273438	347.557373046875	41.63430023193359	808.6282348632812	237.7791290283203	400.582275390625	825.0399780273438	122.8841781616211	42.98750686645508	826.0231323242188	175.2904815673828	41.16508102416992	875.519775390625	237.7254028320312	40.45695877075195	765.403076171875	395.1517639160156	37.7202033996582	878.1974487304688	
3	0.02	360.3646850585938	1056.688354492188	936.380615234375	349.6217041015625	1056.24853515625	1060.250610351562	353.4803466796875	1093.318481445312	996.2169189453125	98.82746887207031	1300.484375	982.02294921875	389.7006530761719	1251.7578125	1008.111511230469	322.6117858886719	1520.609130859375	1015.362609863281	123.5551986694336	1415.64111328125	993.6715698242188	400.1830444335938	1345.516235351562	912.5531616210938	321.5260620117188	1496.720336914062	1115.668090820312	238.4700164794922	1484.50537109375	1186.634643554688	261.5928955078125	1351.678466796875	1262.664672851562	232.4058990478516	1134.949951171875	1282.387573242188	291.2000122070312	1116.589477539062	1219.583740234375	116.8463821411133	910.3009643554688	1235.881713867188	189.4367523193359	884.2864379882812	1289.504516601562	210.8172454833984	1025.790283203125	1295.17236328125	109.0517807006836	731.9819946289062	1205.054565429688	167.5107116699219	815.8379516601562	1283.296630859375	101.1067810058594	829.4104614257812	1255.011840820312	276.5310363769531	1498.11083984375	829.4607543945312	302.0521545410156	1431.619750976562	761.7843017578125	311.1036071777344	1142.162109375	705.8919677734375	310.8997802734375	1134.045043945312	803.733154296875	157.6683502197266	923.4303588867188	716.549072265625	233.9259338378906	901.6774291992188	674.4607543945312	283.2809753417969	1070.819702148438	686.1451416015625	130.523193359375	736.1076049804688	739.4827270507812	126.4073257446289	831.0654296875	706.7158203125	200.6597290039062	820.0313110351562	676.1765747070312	248.6736145019531	1683.91845703125	929.6964111328125	64.06635284423828	1710.307250976562	1041.187255859375	75.67333984375	1701.123413085938	912.4025268554688	240.5641021728516	1701.792358398438	1065.149658203125	237.1935882568359	995.4319458007812	1168.19482421875	215.0262756347656	1016.826293945312	797.5263671875	128.9811706542969	1043.434936523438	847.056884765625	115.7140502929688	1029.644653320312	1105.483764648438	249.5214233398438	500.8239440917969	1134.16796875	235.6149291992188	643.658447265625	1160.549438476562	349.76123046875	46.08586120605469	1143.194213867188	297.1750183105469	281.6534729003906	1151.898803710938	127.2984466552734	43.56883239746094	1140.088134765625	173.6263885498047	44.50713348388672	1087.0634765625	246.6241455078125	38.37241363525391	1193.954711914062	393.5921936035156	43.60263824462891	1069.047119140625	240.5803985595703	518.1934204101562	810.3870849609375	177.2432098388672	785.0221557617188	781.7659912109375	347.5667419433594	41.61243057250977	808.616943359375	237.98486328125	400.5977172851562	825.069580078125	122.9043197631836	42.99344635009766	826.02294921875	175.2977600097656	41.16537475585938	875.5139770507812	237.7327117919922	40.45026779174805	765.39111328125	395.1940612792969	37.73503112792969	878.22998046875	
4	0.03	360.2948608398438	1056.734497070312	936.5909423828125	349.5241088867188	1056.316040039062	1060.459838867188	353.3504028320312	1093.365478515625	996.4344482421875	98.65599822998047	1300.455688476562	982.2230834960938	389.5558166503906	1251.763427734375	1008.234619140625	322.498291015625	1520.61376953125	1015.4609375	123.4995956420898	1415.501708984375	993.7796020507812	400.0258178710938	1345.527954101562	912.6707763671875	321.4337158203125	1496.705688476562	1115.756713867188	238.4023742675781	1484.4833984375	1186.786987304688	261.6329040527344	1351.568969726562	1262.72998046875	232.6505432128906	1134.736083984375	1282.076416015625	291.3971252441406	1116.543090820312	1219.192504882812	117.0846328735352	910.1124267578125	1235.130859375	189.7250061035156	884.0242309570312	1288.730590820312	211.0713806152344	1025.560302734375	1294.677734375	109.5983428955078	731.7528076171875	1204.23583984375	167.8173675537109	815.5950317382812	1282.395263671875	101.360954284668	828.898681640625	1254.05859375	276.3260192871094	1498.0908203125	829.581298828125	301.8471984863281	1431.612670898438	761.905517578125	310.9377746582031	1142.133178710938	706.0433959960938	310.78857421875	1134.034301757812	803.8853149414062	157.4812622070312	923.3619995117188	716.8923950195312	233.7101440429688	901.6075439453125	674.730712890625	283.0516357421875	1070.786010742188	686.34423828125	130.4196624755859	736.0789184570312	739.896728515625	126.2086868286133	830.9798583984375	707.0870971679688	200.4266815185547	819.9584350585938	676.5095825195312	248.8125915527344	1683.88720703125	929.9303588867188	64.20424652099609	1710.51953125	1041.456665039062	75.83353424072266	1701.419189453125	912.6337890625	240.6704711914062	1701.691772460938	1065.393432617188	237.1377868652344	995.4571533203125	1168.433471679688	214.6553039550781	1016.996643066406	797.5447998046875	128.9583740234375	1043.348999023438	847.306640625	115.7161254882812	1029.61767578125	1105.701904296875	249.5203552246094	500.7988891601562	1134.301879882812	235.5656890869141	643.6408081054688	1160.744995117188	349.76025390625	46.08527755737305	1143.198974609375	297.1903076171875	281.6498718261719	1151.949462890625	127.3029937744141	43.57146453857422	1140.08740234375	173.6362915039062	44.50331115722656	1087.061279296875	246.6253051757812	38.37656402587891	1193.955932617188	393.596435546875	43.58571243286133	1069.048583984375	240.9256896972656	518.2081298828125	810.4546508789062	177.357177734375	784.9695434570312	781.9630737304688	347.579345703125	41.58332061767578	808.6024169921875	238.2429656982422	400.6234741210938	825.1001586914062	122.9285583496094	43.00020217895508	826.0244750976562	175.3069610595703	41.1648063659668	875.5062255859375	237.7434234619141	40.44041442871094	765.3717651367188	395.2389526367188	37.7475471496582	878.2531127929688	
